<?xml version="1.0" encoding="utf-8"?>
<!-- Generator: Adobe Illustrator 16.0.2, SVG Export Plug-In . SVG Version: 6.00 Build 0)  -->
<!DOCTYPE svg PUBLIC "-//W3C//DTD SVG 1.1//EN" "http://www.w3.org/Graphics/SVG/1.1/DTD/svg11.dtd">
<svg version="1.1" id="Ñëîé_1" xmlns="http://www.w3.org/2000/svg" xmlns:xlink="http://www.w3.org/1999/xlink" x="0px" y="0px"
	 width="450px" height="400px" viewBox="0 0 450 400" enable-background="new 0 0 450 400" xml:space="preserve">
<g>
	<defs>
		<rect id="SVGID_1_" width="450" height="400"/>
	</defs>
	<use xlink:href="#SVGID_1_"  overflow="visible" fill="#FBF2D3"/>
	<clipPath id="SVGID_2_">
		<use xlink:href="#SVGID_1_"  overflow="visible"/>
	</clipPath>
	<g clip-path="url(#SVGID_2_)">
		<g>
			<path fill="#EDC9A9" d="M55.396,194.91l67.28-46.317c6.645-4.609,14.809-4.3,18.286,0.661c3.478,5.005,0.922,12.772-5.735,17.392
				l-2.295,1.607l-44.224,30.735c0.562,0.615,1.137,1.322,1.692,1.955l30.349-21.703l23.458-4.832
				c11.343-1.293,15.494-3.478,18.949,1.495c3.485,4.988,0.247,11.939-6.405,16.556l-25.584,6.309l-27.201,19.519
				c0.133,0.184,0.246,0.335,0.372,0.508c0.288,0.397,0.5,0.76,0.785,1.166l46.847-22.268c9.623-2.352,14.857-3.071,17.297,2.474
				c1.866,4.249,1.702,9.142-4.917,13.753l-47.476,24.634c0.262,0.483,0.549,0.971,0.815,1.45l33.722-12.213
				c5.777-1.619,7.565-1.7,10.37,1.838c3.781,4.774,2.91,11.371-1.237,14.271L120.9,264.871l-23.375,16.485
				c-0.258,0.179-20.677,16.412-20.94,16.558c-12.639,6.373-22.5,8.514-22.5,8.514c-7.178,1.647-14.907-9.798-30.265-30.474
				C9.509,256.652,4.519,250.841,6.643,244.347c0,0,3.158-6.258,7.719-16.528C31.566,209.513,36.373,206.831,55.396,194.91z"/>
			<polygon fill="#FFFFFF" points="-9.132,247.513 46.678,320.575 56.887,312.756 1.103,239.709 			"/>
			<polygon fill="#48474A" points="-60.914,411.104 53.283,324.679 -8.475,243.765 -60.914,282.687 			"/>
		</g>
		<g>
			<path fill="#48474A" d="M358.203,85.069c4.598-0.001,8.353,4.379,8.349,9.73l-0.128,179.738c-0.006,5.354-3.77,9.74-8.366,9.74
				l-265.019,0.033c-4.596-0.002-8.354-4.38-8.35-9.733L84.82,94.843c0.004-5.356,3.766-9.735,8.361-9.742L358.203,85.069z"/>
			<polygon fill="#FFFFFF" points="340.515,97.13 340.386,272.221 111.514,272.252 111.641,97.162 			"/>
			<polygon fill="#FFFFFF" points="340.515,97.13 340.386,272.221 110.566,272.252 110.695,97.161 			"/>
			<path opacity="0.42" fill="#FAFDFF" d="M99.425,153.582c1.035,0.001,1.877,0.637,1.878,1.411l-0.063,59.471
				c0,0.775-0.846,1.411-1.875,1.411c-1.036-0.002-1.878-0.639-1.878-1.407l0.063-59.478
				C97.551,154.218,98.394,153.582,99.425,153.582z"/>
			<path opacity="0.42" fill="#FAFDFF" d="M355.741,178.753c0.831,0,1.499,0.638,1.501,1.422l-0.01,8.953
				c0,0.781-0.672,1.421-1.496,1.422l-6.113-0.002c-0.824,0.003-1.501-0.635-1.504-1.42l0.011-8.955
				c-0.001-0.786,0.677-1.421,1.501-1.422L355.741,178.753z"/>
			<path opacity="0.42" fill="#FAFDFF" d="M99.1,112.031c1.838-0.001,3.326,1.734,3.322,3.872c0,2.139-1.493,3.871-3.326,3.871
				c-1.839,0-3.324-1.729-3.324-3.867C95.772,113.765,97.264,112.033,99.1,112.031z"/>
		</g>
		<g>
			<rect x="114.667" y="101.668" fill="#74A3D0" width="221.448" height="24.562"/>
			<rect x="278.494" y="110.359" fill="#A9C1E4" width="9.64" height="7.523"/>
			<rect x="183.697" y="110.625" fill="#FFFFFF" width="15.421" height="7.523"/>
			<rect x="142.749" y="110.625" fill="#A9C1E4" width="15.422" height="7.523"/>
			<rect x="175.408" y="110.706" fill="#FFFFFF" width="78.602" height="7.523"/>
			<rect x="245.928" y="110.706" fill="#C8DCED" width="8.082" height="7.523"/>
			<rect x="119.999" y="107.957" fill="#A9C1E4" width="15.057" height="13.021"/>
			<rect x="115.785" y="132.962" fill="#A8C2E1" width="48.726" height="56.36"/>
			<rect x="116.179" y="192.781" fill="#CFDBF0" width="48.727" height="7.528"/>
			<rect x="116.179" y="205.063" fill="#CFDBF0" width="48.727" height="7.527"/>
			<rect x="116.179" y="217.343" fill="#CFDBF0" width="48.727" height="7.528"/>
			<rect x="116.179" y="229.622" fill="#CFDBF0" width="48.727" height="7.528"/>
			<polygon fill="#D2E1F2" points="164.906,262.107 134.007,262.107 122.122,268.842 122.519,262.107 116.179,262.107 
				116.179,241.903 164.906,241.903 			"/>
			<rect x="169.66" y="144.119" fill="#A8C2E1" width="116.468" height="7.388"/>
			<rect x="169.439" y="157.715" fill="#B6CDE7" width="116.468" height="60.785"/>
			<rect x="169.439" y="239.143" fill="#B6CDE7" width="116.468" height="22.957"/>
			<rect x="169.48" y="222.563" fill="#D2E1F2" width="114.457" height="3.981"/>
			<rect x="169.48" y="230.903" fill="#D2E1F2" width="114.457" height="3.982"/>
			<g>
				<rect x="289.764" y="132.962" fill="#A8C2E1" width="7.866" height="7.132"/>
				<rect x="289.764" y="144.848" fill="#A8C2E1" width="7.866" height="7.131"/>
				<rect x="289.764" y="156.732" fill="#A8C2E1" width="7.866" height="7.132"/>
				<rect x="289.764" y="168.618" fill="#A8C2E1" width="7.866" height="7.131"/>
				<rect x="289.764" y="180.504" fill="#A8C2E1" width="7.866" height="7.13"/>
			</g>
			<rect x="289.368" y="193.849" fill="#A8C2E1" width="46.349" height="30.5"/>
			<rect x="289.761" y="229.503" fill="#D5E2F0" width="46.349" height="32.02"/>
			<path fill="#C8DCED" d="M267.011,117.288l-3.577-2.425c0.097-0.328,0.165-0.666,0.165-1.023c0-1.992-1.614-3.606-3.605-3.606
				s-3.605,1.615-3.605,3.606c0,1.988,1.614,3.604,3.605,3.604c1.083,0,2.043-0.489,2.704-1.247l3.462,2.348
				c0.131,0.088,0.279,0.131,0.425,0.131c0.242,0,0.483-0.118,0.629-0.334C267.447,117.994,267.357,117.523,267.011,117.288z
				 M259.993,116.611c-1.531,0-2.771-1.241-2.771-2.771c0-1.533,1.24-2.773,2.771-2.773c1.53,0,2.771,1.24,2.771,2.773
				c0,0.25-0.042,0.491-0.107,0.724c-0.216,0.021-0.419,0.126-0.549,0.318c-0.16,0.238-0.155,0.531-0.034,0.771
				C261.565,116.233,260.826,116.611,259.993,116.611z"/>
			<g>
				<g>
					<path fill="#74A3D0" d="M175.713,139.614c0,0.066-0.003,0.123-0.011,0.167c-0.007,0.045-0.017,0.083-0.032,0.115
						c-0.015,0.032-0.033,0.054-0.056,0.069c-0.022,0.015-0.046,0.023-0.077,0.023h-2.854c-0.076,0-0.149-0.025-0.216-0.075
						c-0.069-0.054-0.102-0.145-0.102-0.274v-5.979c0-0.028,0.005-0.05,0.019-0.07c0.014-0.019,0.038-0.035,0.07-0.046
						c0.034-0.013,0.079-0.021,0.134-0.031c0.058-0.007,0.126-0.013,0.207-0.013c0.082,0,0.151,0.005,0.205,0.013
						c0.055,0.01,0.1,0.018,0.134,0.031c0.032,0.012,0.056,0.028,0.069,0.046c0.014,0.021,0.02,0.042,0.02,0.07v5.584h2.316
						c0.03,0,0.055,0.007,0.077,0.022c0.022,0.015,0.041,0.037,0.056,0.066c0.015,0.029,0.025,0.065,0.032,0.111
						C175.709,139.491,175.713,139.548,175.713,139.614z"/>
					<path fill="#74A3D0" d="M180.742,137.568c0,0.366-0.049,0.702-0.145,1.011c-0.097,0.308-0.239,0.574-0.431,0.796
						c-0.19,0.222-0.43,0.397-0.718,0.521c-0.289,0.125-0.622,0.187-1.001,0.187c-0.368,0-0.69-0.054-0.965-0.165
						c-0.274-0.111-0.504-0.268-0.686-0.479c-0.184-0.209-0.32-0.463-0.41-0.765c-0.089-0.297-0.135-0.638-0.135-1.017
						c0-0.365,0.048-0.703,0.144-1.01c0.095-0.309,0.237-0.574,0.428-0.797c0.191-0.222,0.43-0.396,0.718-0.517
						c0.285-0.125,0.62-0.185,1.002-0.185c0.369,0,0.691,0.054,0.966,0.165c0.273,0.109,0.503,0.27,0.685,0.479
						c0.184,0.209,0.32,0.463,0.412,0.764C180.697,136.854,180.742,137.192,180.742,137.568z M179.889,137.623
						c0-0.244-0.023-0.474-0.067-0.689c-0.046-0.215-0.121-0.406-0.224-0.568c-0.106-0.163-0.247-0.292-0.423-0.388
						c-0.178-0.094-0.4-0.142-0.666-0.142c-0.243,0-0.455,0.043-0.632,0.13c-0.175,0.086-0.321,0.209-0.436,0.368
						c-0.113,0.158-0.198,0.344-0.253,0.561c-0.056,0.215-0.083,0.453-0.083,0.709c0,0.245,0.023,0.478,0.068,0.694
						c0.044,0.215,0.12,0.404,0.227,0.565c0.105,0.161,0.247,0.29,0.424,0.384c0.178,0.095,0.4,0.144,0.666,0.144
						c0.241,0,0.45-0.044,0.629-0.13c0.178-0.087,0.323-0.209,0.436-0.366c0.115-0.154,0.2-0.341,0.252-0.558
						C179.863,138.119,179.889,137.882,179.889,137.623z"/>
					<path fill="#74A3D0" d="M184.58,135.666c0,0.074-0.001,0.135-0.004,0.185c-0.006,0.051-0.01,0.091-0.021,0.12
						c-0.01,0.027-0.022,0.048-0.037,0.064c-0.014,0.015-0.036,0.022-0.062,0.022s-0.06-0.007-0.098-0.022
						c-0.038-0.016-0.082-0.03-0.128-0.044c-0.049-0.016-0.104-0.03-0.163-0.043c-0.059-0.013-0.124-0.02-0.194-0.02
						c-0.084,0-0.167,0.019-0.245,0.051c-0.08,0.033-0.164,0.086-0.252,0.163c-0.087,0.079-0.182,0.18-0.278,0.305
						c-0.095,0.126-0.202,0.282-0.318,0.464v2.955c0,0.027-0.007,0.05-0.021,0.067c-0.013,0.018-0.034,0.035-0.065,0.047
						c-0.029,0.013-0.07,0.023-0.124,0.031c-0.053,0.005-0.121,0.009-0.205,0.009c-0.08,0-0.146-0.004-0.2-0.009
						c-0.053-0.007-0.095-0.018-0.126-0.031c-0.032-0.013-0.054-0.029-0.065-0.047c-0.011-0.018-0.017-0.041-0.017-0.067v-4.491
						c0-0.024,0.003-0.048,0.016-0.065c0.01-0.021,0.029-0.037,0.059-0.052c0.031-0.016,0.067-0.026,0.116-0.031
						c0.046-0.005,0.108-0.006,0.184-0.006c0.073,0,0.135,0.001,0.182,0.006c0.049,0.005,0.086,0.015,0.113,0.031
						c0.026,0.015,0.045,0.031,0.057,0.052c0.012,0.017,0.018,0.041,0.018,0.065v0.653c0.123-0.178,0.238-0.324,0.347-0.438
						c0.107-0.113,0.21-0.202,0.306-0.267c0.097-0.065,0.193-0.11,0.288-0.136c0.096-0.023,0.191-0.036,0.288-0.036
						c0.042,0,0.092,0.002,0.147,0.007c0.054,0.006,0.112,0.014,0.171,0.028c0.061,0.013,0.114,0.029,0.163,0.044
						c0.047,0.019,0.081,0.034,0.103,0.051c0.018,0.015,0.032,0.032,0.04,0.047c0.005,0.014,0.011,0.034,0.018,0.057
						c0.005,0.023,0.007,0.057,0.008,0.103C184.579,135.53,184.58,135.589,184.58,135.666z"/>
					<path fill="#74A3D0" d="M189.216,137.423c0,0.13-0.033,0.222-0.099,0.277c-0.064,0.054-0.139,0.082-0.223,0.082h-2.958
						c0,0.25,0.025,0.473,0.075,0.672c0.051,0.201,0.134,0.373,0.251,0.515c0.118,0.145,0.27,0.253,0.457,0.33
						c0.188,0.077,0.416,0.115,0.687,0.115c0.214,0,0.405-0.018,0.572-0.053c0.167-0.035,0.312-0.073,0.434-0.117
						c0.123-0.042,0.222-0.082,0.301-0.116c0.077-0.037,0.137-0.053,0.178-0.053c0.023,0,0.044,0.004,0.063,0.016
						c0.017,0.012,0.032,0.03,0.042,0.053c0.009,0.023,0.016,0.057,0.023,0.097c0.003,0.042,0.006,0.092,0.006,0.153
						c0,0.043-0.002,0.082-0.004,0.112c-0.004,0.03-0.007,0.061-0.013,0.084c-0.004,0.024-0.014,0.047-0.025,0.067
						c-0.012,0.02-0.027,0.039-0.045,0.056c-0.017,0.017-0.072,0.049-0.163,0.09c-0.088,0.042-0.205,0.083-0.348,0.122
						c-0.143,0.042-0.309,0.076-0.497,0.108c-0.188,0.031-0.388,0.047-0.602,0.047c-0.369,0-0.691-0.051-0.971-0.155
						c-0.278-0.102-0.51-0.255-0.7-0.46c-0.19-0.201-0.333-0.455-0.429-0.762c-0.097-0.306-0.146-0.662-0.146-1.068
						c0-0.386,0.051-0.732,0.15-1.04c0.101-0.307,0.244-0.569,0.432-0.784c0.188-0.213,0.414-0.377,0.681-0.493
						c0.266-0.114,0.563-0.172,0.894-0.172c0.353,0,0.651,0.057,0.899,0.167c0.248,0.115,0.453,0.268,0.613,0.458
						c0.158,0.189,0.276,0.417,0.35,0.675c0.077,0.257,0.113,0.532,0.113,0.825V137.423z M188.387,137.178
						c0.009-0.431-0.087-0.77-0.289-1.017c-0.203-0.247-0.503-0.369-0.902-0.369c-0.205,0-0.383,0.037-0.537,0.114
						c-0.154,0.076-0.283,0.178-0.387,0.306c-0.104,0.125-0.184,0.272-0.24,0.441c-0.058,0.168-0.088,0.343-0.096,0.525H188.387z"/>
					<path fill="#74A3D0" d="M197.129,139.863c0,0.027-0.006,0.05-0.02,0.067c-0.013,0.018-0.033,0.035-0.063,0.047
						c-0.031,0.013-0.073,0.023-0.126,0.031c-0.053,0.005-0.118,0.009-0.197,0.009c-0.085,0-0.153-0.004-0.207-0.009
						c-0.052-0.007-0.097-0.018-0.127-0.031c-0.033-0.013-0.054-0.029-0.067-0.047c-0.013-0.018-0.02-0.041-0.02-0.067v-2.729
						c0-0.19-0.017-0.363-0.051-0.52c-0.033-0.156-0.086-0.291-0.159-0.403c-0.073-0.115-0.167-0.201-0.278-0.261
						c-0.113-0.061-0.247-0.089-0.399-0.089c-0.19,0-0.381,0.072-0.572,0.219c-0.191,0.145-0.401,0.36-0.631,0.644v3.139
						c0,0.027-0.008,0.05-0.021,0.067c-0.014,0.018-0.035,0.035-0.067,0.047c-0.032,0.013-0.074,0.023-0.127,0.031
						c-0.054,0.005-0.121,0.009-0.2,0.009c-0.077,0-0.143-0.004-0.196-0.009c-0.057-0.007-0.099-0.018-0.131-0.031
						c-0.032-0.013-0.052-0.029-0.064-0.047c-0.011-0.018-0.018-0.041-0.018-0.067v-2.729c0-0.19-0.02-0.363-0.055-0.52
						c-0.038-0.156-0.091-0.291-0.164-0.403c-0.076-0.115-0.167-0.201-0.277-0.261c-0.112-0.061-0.245-0.089-0.397-0.089
						c-0.19,0-0.38,0.072-0.575,0.219c-0.193,0.145-0.404,0.36-0.628,0.644v3.139c0,0.027-0.007,0.05-0.021,0.067
						c-0.013,0.018-0.034,0.035-0.064,0.047c-0.03,0.013-0.071,0.023-0.125,0.031c-0.053,0.005-0.121,0.009-0.204,0.009
						c-0.08,0-0.146-0.004-0.201-0.009c-0.052-0.007-0.094-0.018-0.126-0.031c-0.031-0.013-0.054-0.029-0.065-0.047
						c-0.012-0.018-0.017-0.041-0.017-0.067v-4.491c0-0.024,0.004-0.048,0.015-0.065c0.01-0.021,0.03-0.037,0.06-0.052
						c0.029-0.016,0.066-0.026,0.114-0.031c0.046-0.005,0.109-0.006,0.183-0.006c0.075,0,0.136,0.001,0.183,0.006
						c0.049,0.005,0.086,0.015,0.113,0.031c0.026,0.015,0.045,0.031,0.058,0.052c0.012,0.017,0.018,0.041,0.018,0.065v0.594
						c0.252-0.282,0.497-0.489,0.735-0.622c0.237-0.13,0.479-0.196,0.722-0.196c0.185,0,0.352,0.021,0.502,0.064
						c0.147,0.042,0.277,0.103,0.391,0.183c0.113,0.077,0.209,0.171,0.288,0.278c0.082,0.11,0.148,0.229,0.201,0.362
						c0.148-0.163,0.292-0.302,0.427-0.413c0.135-0.114,0.266-0.207,0.391-0.275c0.125-0.069,0.245-0.121,0.363-0.152
						c0.12-0.031,0.237-0.047,0.356-0.047c0.289,0,0.533,0.05,0.729,0.152c0.196,0.101,0.355,0.237,0.476,0.405
						c0.122,0.17,0.208,0.37,0.26,0.598c0.052,0.227,0.077,0.468,0.077,0.719V139.863z"/>
					<path fill="#74A3D0" d="M201.896,139.858c0,0.027-0.007,0.049-0.021,0.069c-0.014,0.02-0.036,0.035-0.068,0.048
						c-0.033,0.011-0.078,0.021-0.133,0.03c-0.054,0.008-0.125,0.012-0.208,0.012c-0.079,0-0.147-0.004-0.204-0.012
						c-0.056-0.009-0.103-0.019-0.136-0.03c-0.033-0.013-0.056-0.028-0.068-0.048c-0.013-0.02-0.021-0.042-0.021-0.069v-6.198
						c0-0.028,0.007-0.05,0.021-0.07c0.017-0.019,0.041-0.035,0.077-0.046c0.036-0.013,0.08-0.021,0.135-0.031
						c0.054-0.007,0.119-0.013,0.196-0.013c0.083,0,0.153,0.005,0.208,0.013c0.055,0.01,0.1,0.018,0.133,0.031
						c0.033,0.012,0.055,0.028,0.068,0.046c0.014,0.021,0.021,0.042,0.021,0.07V139.858z"/>
					<path fill="#74A3D0" d="M207.65,137.548c0,0.393-0.043,0.745-0.129,1.059c-0.085,0.312-0.209,0.576-0.375,0.794
						c-0.163,0.217-0.369,0.386-0.61,0.504c-0.245,0.119-0.521,0.178-0.833,0.178c-0.134,0-0.257-0.013-0.37-0.04
						c-0.113-0.026-0.225-0.068-0.333-0.125c-0.108-0.057-0.215-0.129-0.322-0.215c-0.106-0.085-0.219-0.187-0.339-0.303v2.245
						c0,0.027-0.008,0.051-0.021,0.07c-0.013,0.021-0.035,0.036-0.064,0.051c-0.03,0.014-0.072,0.022-0.125,0.029
						c-0.054,0.007-0.122,0.009-0.205,0.009c-0.08,0-0.146-0.002-0.201-0.009c-0.053-0.007-0.094-0.015-0.126-0.029
						c-0.031-0.015-0.054-0.03-0.063-0.051c-0.012-0.019-0.019-0.043-0.019-0.07v-6.272c0-0.03,0.004-0.053,0.014-0.071
						c0.012-0.019,0.03-0.036,0.06-0.049c0.031-0.012,0.068-0.022,0.116-0.027c0.046-0.005,0.102-0.006,0.169-0.006
						c0.071,0,0.126,0.001,0.174,0.006c0.044,0.005,0.082,0.015,0.11,0.027c0.031,0.013,0.053,0.03,0.064,0.049
						c0.01,0.019,0.017,0.041,0.017,0.071v0.605c0.136-0.141,0.268-0.263,0.395-0.365c0.126-0.103,0.253-0.188,0.38-0.257
						c0.129-0.068,0.259-0.12,0.394-0.155c0.135-0.034,0.278-0.051,0.428-0.051c0.326,0,0.604,0.063,0.832,0.189
						c0.23,0.127,0.418,0.301,0.562,0.521c0.146,0.218,0.25,0.474,0.317,0.765C207.614,136.913,207.65,137.221,207.65,137.548z
						 M206.795,137.642c0-0.23-0.018-0.452-0.052-0.666c-0.036-0.215-0.097-0.405-0.181-0.57c-0.086-0.167-0.2-0.301-0.343-0.401
						c-0.146-0.099-0.325-0.147-0.538-0.147c-0.106,0-0.213,0.015-0.316,0.045c-0.103,0.032-0.209,0.082-0.315,0.149
						c-0.109,0.07-0.219,0.159-0.337,0.27c-0.119,0.112-0.242,0.249-0.372,0.411v1.789c0.226,0.275,0.442,0.486,0.647,0.632
						c0.204,0.147,0.418,0.221,0.644,0.221c0.206,0,0.384-0.049,0.534-0.15c0.148-0.101,0.269-0.233,0.36-0.398
						c0.091-0.167,0.16-0.354,0.203-0.56C206.774,138.06,206.795,137.853,206.795,137.642z"/>
					<path fill="#74A3D0" d="M211.655,138.642c0,0.229-0.042,0.433-0.126,0.611c-0.085,0.181-0.205,0.332-0.362,0.456
						c-0.157,0.122-0.342,0.216-0.56,0.278c-0.215,0.063-0.455,0.095-0.714,0.095c-0.16,0-0.313-0.013-0.456-0.038
						c-0.146-0.023-0.275-0.057-0.389-0.095c-0.115-0.037-0.212-0.078-0.293-0.12c-0.08-0.041-0.138-0.078-0.173-0.112
						c-0.038-0.032-0.064-0.079-0.08-0.139c-0.016-0.059-0.025-0.141-0.025-0.244c0-0.062,0.001-0.115,0.01-0.159
						c0.005-0.044,0.015-0.08,0.024-0.104c0.01-0.028,0.023-0.047,0.042-0.058c0.019-0.011,0.04-0.019,0.063-0.019
						c0.036,0,0.092,0.022,0.162,0.068c0.071,0.044,0.16,0.095,0.265,0.148c0.104,0.052,0.229,0.102,0.372,0.146
						c0.143,0.044,0.308,0.068,0.494,0.068c0.14,0,0.268-0.015,0.379-0.046c0.114-0.031,0.211-0.074,0.295-0.133
						c0.082-0.057,0.146-0.131,0.191-0.223c0.045-0.089,0.067-0.195,0.067-0.318c0-0.126-0.033-0.233-0.096-0.318
						c-0.066-0.087-0.151-0.164-0.258-0.229c-0.106-0.066-0.227-0.126-0.36-0.178c-0.131-0.052-0.269-0.105-0.412-0.162
						c-0.14-0.057-0.279-0.122-0.412-0.193c-0.137-0.07-0.257-0.159-0.362-0.262c-0.106-0.103-0.193-0.226-0.258-0.369
						c-0.066-0.143-0.096-0.313-0.096-0.514c0-0.176,0.033-0.345,0.102-0.506c0.066-0.161,0.169-0.303,0.308-0.423
						c0.136-0.122,0.307-0.221,0.511-0.293c0.204-0.074,0.443-0.109,0.715-0.109c0.12,0,0.239,0.01,0.361,0.03
						c0.12,0.019,0.228,0.044,0.324,0.073c0.097,0.031,0.178,0.063,0.247,0.098c0.069,0.035,0.12,0.065,0.154,0.093
						c0.036,0.027,0.06,0.05,0.07,0.071c0.012,0.018,0.02,0.042,0.025,0.066c0.005,0.025,0.011,0.056,0.015,0.093
						c0.006,0.035,0.007,0.081,0.007,0.134c0,0.056-0.001,0.107-0.007,0.147c-0.004,0.042-0.014,0.078-0.024,0.103
						c-0.011,0.026-0.027,0.046-0.043,0.057c-0.018,0.012-0.036,0.019-0.055,0.019c-0.029,0-0.074-0.02-0.129-0.056
						c-0.059-0.037-0.13-0.076-0.22-0.117c-0.091-0.042-0.195-0.081-0.316-0.117c-0.122-0.036-0.262-0.055-0.417-0.055
						c-0.14,0-0.263,0.014-0.371,0.046c-0.105,0.031-0.192,0.076-0.263,0.136c-0.067,0.059-0.117,0.126-0.152,0.206
						c-0.036,0.079-0.053,0.166-0.053,0.261c0,0.128,0.032,0.237,0.1,0.325c0.065,0.087,0.153,0.167,0.258,0.232
						c0.107,0.067,0.229,0.127,0.365,0.179c0.136,0.053,0.275,0.108,0.417,0.166c0.142,0.056,0.28,0.119,0.419,0.188
						c0.137,0.07,0.26,0.156,0.366,0.255c0.105,0.1,0.192,0.22,0.257,0.36C211.624,138.28,211.655,138.448,211.655,138.642z"/>
					<path fill="#74A3D0" d="M216.683,139.863c0,0.027-0.009,0.05-0.018,0.067c-0.013,0.018-0.035,0.035-0.063,0.047
						c-0.029,0.013-0.07,0.023-0.119,0.031c-0.046,0.005-0.107,0.009-0.175,0.009c-0.077,0-0.141-0.004-0.187-0.009
						c-0.047-0.007-0.087-0.018-0.116-0.031c-0.029-0.013-0.048-0.029-0.058-0.047c-0.008-0.018-0.015-0.041-0.015-0.067v-0.594
						c-0.256,0.284-0.51,0.49-0.76,0.62c-0.248,0.129-0.501,0.194-0.756,0.194c-0.301,0-0.551-0.05-0.757-0.15
						c-0.205-0.1-0.371-0.234-0.496-0.406c-0.128-0.172-0.216-0.372-0.271-0.599c-0.057-0.228-0.083-0.505-0.083-0.833v-2.724
						c0-0.024,0.007-0.048,0.019-0.065c0.012-0.021,0.032-0.037,0.065-0.052c0.035-0.016,0.079-0.026,0.131-0.031
						c0.053-0.005,0.12-0.006,0.2-0.006c0.078,0,0.146,0.001,0.198,0.006c0.054,0.005,0.098,0.015,0.128,0.031
						c0.032,0.015,0.055,0.031,0.067,0.052c0.014,0.017,0.018,0.041,0.018,0.065v2.615c0,0.263,0.021,0.475,0.059,0.632
						c0.038,0.158,0.097,0.294,0.175,0.403c0.078,0.113,0.178,0.2,0.296,0.26c0.119,0.062,0.261,0.093,0.418,0.093
						c0.207,0,0.412-0.073,0.619-0.221c0.205-0.146,0.421-0.36,0.649-0.643v-3.139c0-0.024,0.005-0.048,0.02-0.065
						c0.009-0.021,0.032-0.037,0.068-0.052c0.03-0.016,0.075-0.026,0.125-0.031c0.051-0.005,0.119-0.006,0.201-0.006
						c0.083,0,0.148,0.001,0.203,0.006c0.054,0.005,0.093,0.015,0.124,0.031c0.03,0.015,0.051,0.031,0.067,0.052
						c0.015,0.017,0.024,0.041,0.024,0.065V139.863z"/>
					<path fill="#74A3D0" d="M224.866,139.863c0,0.027-0.01,0.05-0.021,0.067c-0.015,0.018-0.036,0.035-0.064,0.047
						c-0.031,0.013-0.074,0.023-0.125,0.031c-0.055,0.005-0.119,0.009-0.2,0.009c-0.083,0-0.15-0.004-0.204-0.009
						c-0.051-0.007-0.096-0.018-0.127-0.031c-0.032-0.013-0.054-0.029-0.068-0.047c-0.013-0.018-0.021-0.041-0.021-0.067v-2.729
						c0-0.19-0.017-0.363-0.049-0.52c-0.035-0.156-0.086-0.291-0.159-0.403c-0.074-0.115-0.167-0.201-0.28-0.261
						c-0.114-0.061-0.247-0.089-0.399-0.089c-0.191,0-0.382,0.072-0.572,0.219c-0.191,0.145-0.403,0.36-0.631,0.644v3.139
						c0,0.027-0.009,0.05-0.021,0.067c-0.014,0.018-0.038,0.035-0.067,0.047c-0.032,0.013-0.074,0.023-0.126,0.031
						c-0.054,0.005-0.121,0.009-0.201,0.009c-0.077,0-0.142-0.004-0.197-0.009c-0.055-0.007-0.099-0.018-0.13-0.031
						c-0.03-0.013-0.052-0.029-0.065-0.047c-0.012-0.018-0.016-0.041-0.016-0.067v-2.729c0-0.19-0.021-0.363-0.056-0.52
						c-0.036-0.156-0.09-0.291-0.165-0.403c-0.073-0.115-0.165-0.201-0.277-0.261c-0.114-0.061-0.244-0.089-0.395-0.089
						c-0.192,0-0.382,0.072-0.577,0.219c-0.19,0.145-0.403,0.36-0.628,0.644v3.139c0,0.027-0.008,0.05-0.02,0.067
						c-0.013,0.018-0.033,0.035-0.064,0.047c-0.029,0.013-0.071,0.023-0.125,0.031c-0.054,0.005-0.122,0.009-0.205,0.009
						c-0.082,0-0.147-0.004-0.201-0.009c-0.054-0.007-0.093-0.018-0.127-0.031c-0.03-0.013-0.052-0.029-0.063-0.047
						c-0.011-0.018-0.018-0.041-0.018-0.067v-4.491c0-0.024,0.005-0.048,0.016-0.065c0.008-0.021,0.029-0.037,0.058-0.052
						c0.031-0.016,0.07-0.026,0.117-0.031c0.046-0.005,0.106-0.006,0.185-0.006c0.074,0,0.134,0.001,0.181,0.006
						c0.047,0.005,0.085,0.015,0.111,0.031c0.029,0.015,0.047,0.031,0.059,0.052c0.012,0.017,0.018,0.041,0.018,0.065v0.594
						c0.251-0.282,0.497-0.489,0.736-0.622c0.235-0.13,0.479-0.196,0.721-0.196c0.185,0,0.353,0.021,0.5,0.064
						c0.149,0.042,0.28,0.103,0.393,0.183c0.112,0.077,0.209,0.171,0.288,0.278c0.082,0.11,0.149,0.229,0.2,0.362
						c0.149-0.163,0.293-0.302,0.427-0.413c0.136-0.114,0.266-0.207,0.389-0.275c0.125-0.069,0.246-0.121,0.366-0.152
						c0.118-0.031,0.237-0.047,0.356-0.047c0.288,0,0.533,0.05,0.727,0.152c0.198,0.101,0.356,0.237,0.476,0.405
						c0.124,0.17,0.209,0.37,0.263,0.598c0.05,0.227,0.078,0.468,0.078,0.719V139.863z"/>
				</g>
			</g>
		</g>
		<rect x="286.636" y="110.359" fill="#D8E3F4" width="15.419" height="7.523"/>
		<rect x="307.109" y="110.359" fill="#D8E3F4" width="15.42" height="7.523"/>
		<rect x="290.927" y="135.829" fill="#D8E3F4" width="36.085" height="1.739"/>
		<rect x="290.979" y="138.259" fill="#D8E3F4" width="16.271" height="1.74"/>
		<rect x="292.169" y="185.84" fill="#D8E3F4" width="17.976" height="1.739"/>
		<rect x="291.074" y="150.014" fill="#D8E3F4" width="24.99" height="1.74"/>
		<rect x="291.979" y="162.05" fill="#D8E3F4" width="21.485" height="1.741"/>
		<rect x="291.979" y="174.087" fill="#D8E3F4" width="21.485" height="1.739"/>
		<rect x="290.927" y="147.53" fill="#D8E3F4" width="36.085" height="1.739"/>
		<rect x="291.927" y="159.575" fill="#D8E3F4" width="36.085" height="1.739"/>
		<rect x="292.021" y="171.603" fill="#D8E3F4" width="36.086" height="1.739"/>
		<rect x="291.927" y="183.321" fill="#D8E3F4" width="36.085" height="1.739"/>
		<rect x="290.062" y="199.022" fill="#FFFFFF" width="33.757" height="1.613"/>
		<rect x="289.94" y="205.935" fill="#FFFFFF" width="33.757" height="1.614"/>
		<rect x="290.186" y="212.6" fill="#FFFFFF" width="33.758" height="1.614"/>
		<rect x="290.186" y="219.146" fill="#FFFFFF" width="33.758" height="1.613"/>
		<g>
			<g>
				<g>
					<path fill="#EDC6A4" d="M340.521,312.286c-10.559-0.595-21.924-14.403-29.119-20.739c-8.081-7.101-9.439-17.479-17.923-24.373
						c-6.671-5.406-8.325-11.95,1.283-14.459c7.42-1.954,15.962,5.026,21.724,8.896c6.954,4.66,15.75,22.692,24.181,25.294
						c8.381,2.597,18.563-4.012,26.421-5.996c11.593-2.913,21.93,7.35,27.132,15.782c6.57,10.584-2.479,20.867-4.516,22.462
						C381.343,325.791,349.173,312.765,340.521,312.286z"/>
					<path opacity="0.54" fill="#FFD8C7" d="M293.143,267.083c1.378,1.13,2.589,2.345,3.936,3.503
						c0.376-0.438,0.898-0.807,1.144-1.366c1.99-4.367-1.385-9.848-7.537-12.212c-0.719-0.262-1.407-0.467-2.121-0.636
						c-0.079,0.002-0.132,0.037-0.212,0.043C286.622,259.474,288.739,263.502,293.143,267.083z"/>
				</g>
				<path opacity="0.16" fill="#EEC29D" d="M288.132,257.598c1.085-0.854,2.523-1.597,4.572-2.127
					c7.418-1.956,15.957,5.018,21.721,8.89c6.955,4.66,15.744,22.695,24.179,25.292c8.387,2.603,18.565-4.01,26.428-5.992
					c11.596-2.912,34.345,21.644,29.057,13.12c-5.212-8.437-15.531-18.696-27.13-15.794c-7.858,1.988-18.039,8.595-26.432,6.002
					c-8.427-2.597-17.214-20.628-24.178-25.299c-5.749-3.867-14.301-10.845-21.726-8.891
					C290.68,253.832,288.702,255.564,288.132,257.598z"/>
			</g>
			<path fill="#F2D2B5" d="M321.267,278.949l-57.522-68.063c-9.762-11.147-9.988-18.296-5.372-22.187
				c4.649-3.885,7.981-5.559,18.729,4.89l5.239,5.373l39.845,46.801c0.559-0.611,1.206-1.249,1.798-1.851l-16.865-25.043
				l-5.351-7.634c-2.357-11.05,13.894-16.229,19.118-10.105l5.771,7.09l13.304,20.726c0.166-0.157,0.307-0.282,0.481-0.421
				c0.364-0.316,0.704-0.561,1.082-0.886l-14.666-25.178c-3.242-9.26,12.896-15.38,18.118-9.281l13.952,21.157
				c0.448-0.297,0.911-0.628,1.357-0.941l-9.614-19.483c-2.166-5.542,11.155-12.182,15.985-7.237l18.086,21.235l18.614,21.483
				c0.203,0.238,14.461,19.933,14.628,20.178c7.54,11.857,10.601,21.361,10.601,21.361c2.317,6.908-4.516,14.498-23.655,31.558
				c-17.856,15.892-23.181,21.337-29.832,19.864c0,0-6.538-2.529-17.198-6.066C338.057,301.062,334.928,296.572,321.267,278.949z"/>
			<polygon fill="#FFFFFF" points="379.726,337.586 447.197,275.81 438.445,266.482 370.995,328.229 			"/>
			<polygon fill="#48474A" points="479.148,299.224 450.659,268.926 375.925,337.294 479.143,442.413 			"/>
			<path opacity="0.54" fill="#FCECDC" d="M267.322,187.439c-3.006-0.521-5.992,0.138-8.144,2.142
				c-2.358,2.199-3.076,5.481-2.42,8.773c0.336,0.536,0.73,1.059,1.168,1.579c3.808,4.403,9.568,5.683,12.857,2.841
				c3.306-2.843,2.888-8.695-0.909-13.086C269.094,188.793,268.237,188.072,267.322,187.439z"/>
		</g>
		<g>
			<g>
				<path fill="#F3D1B5" d="M49.856,204.838c6.373-8.465,24.33-10.3,33.67-12.793c10.474-2.813,19.998,1.809,30.525-1.452
					c8.268-2.569,14.712-0.338,11.494,9.064c-2.468,7.269-13.098,10.533-19.562,13.194c-7.798,3.216-27.899,0.561-34.773,6.152
					c-6.85,5.557-6.909,17.705-9.596,25.343c-3.976,11.279-18.368,14.215-28.383,13.888c-12.575-0.389-16.242-13.619-16.458-16.191
					C15.813,231.394,44.656,211.79,49.856,204.838z"/>
				<path opacity="0.54" fill="#FCECDC" d="M114.317,190.352c-1.726,0.534-3.428,0.866-5.151,1.346
					c0.165,0.56,0.187,1.208,0.526,1.708c2.574,4.083,9.071,4.298,14.49,0.481c0.624-0.453,1.174-0.91,1.718-1.421
					c0.036-0.063,0.049-0.126,0.079-0.195C124.356,189.129,119.773,188.674,114.317,190.352z"/>
			</g>
			<path opacity="0.25" fill="#F9A673" d="M125.106,191.436c0.108,1.373-0.06,2.979-0.739,4.978
				c-2.468,7.27-13.099,10.533-19.566,13.195c-7.794,3.215-27.901,0.559-34.771,6.152c-6.846,5.559-6.91,17.7-9.597,25.344
				c-3.979,11.278-37.331,16.655-27.197,16.964c10.014,0.333,24.405-2.599,28.384-13.879c2.684-7.64,2.743-19.79,9.597-25.347
				c6.868-5.584,26.966-2.937,34.77-6.147c6.46-2.663,17.091-5.927,19.563-13.198C126.875,195.639,126.504,193.039,125.106,191.436z
				"/>
		</g>
	</g>
	<circle clip-path="url(#SVGID_2_)" fill="#FF5536" cx="324.171" cy="110.358" r="3.202"/>
</g>
</svg>
