<?xml version="1.0" encoding="utf-8"?>
<!-- Generator: Adobe Illustrator 16.0.2, SVG Export Plug-In . SVG Version: 6.00 Build 0)  -->
<!DOCTYPE svg PUBLIC "-//W3C//DTD SVG 1.1//EN" "http://www.w3.org/Graphics/SVG/1.1/DTD/svg11.dtd">
<svg version="1.1" id="Capa_1" xmlns="http://www.w3.org/2000/svg" xmlns:xlink="http://www.w3.org/1999/xlink" x="0px" y="0px"
	 width="425.197px" height="451.764px" viewBox="0 0 425.197 451.764" enable-background="new 0 0 425.197 451.764"
	 xml:space="preserve">
<g>
	<rect fill="#E0E0E0" width="425.197" height="451.764"/>
	<g>
		<path fill="#999999" d="M102.404,314.589v-15.751h-8.08c-0.862-3.396-2.246-6.581-4.054-9.474l5.805-5.806L84.938,272.42
			l-5.903,5.902c-2.873-1.725-6.028-3.027-9.377-3.832v-8.4H53.906v8.4c-3.349,0.805-6.504,2.107-9.377,3.832l-5.903-5.902
			l-11.138,11.138l5.806,5.806c-1.808,2.894-3.192,6.079-4.055,9.475h-8.081v15.751h7.889c0.795,3.505,2.132,6.801,3.929,9.793
			l-5.488,5.487l11.139,11.139l5.391-5.391c3.011,1.881,6.339,3.297,9.889,4.15v7.57h15.751v-7.57c3.55-0.854,6.879-2.27,9.89-4.15
			l5.391,5.39l11.138-11.138l-5.488-5.487c1.796-2.992,3.134-6.288,3.929-9.793H102.404z M61.781,326.197
			c-10.531,0-19.068-8.538-19.068-19.069c0-10.53,8.537-19.067,19.068-19.067s19.068,8.537,19.068,19.067
			C80.85,317.659,72.313,326.197,61.781,326.197z"/>
		<path fill="#666666" d="M61.781,288.061c-10.531,0-19.068,8.537-19.068,19.067c0,10.531,8.537,19.069,19.068,19.069
			s19.068-8.538,19.068-19.069C80.85,296.598,72.313,288.061,61.781,288.061z M61.781,317.492c-5.724,0-10.363-4.641-10.363-10.364
			s4.64-10.363,10.363-10.363s10.363,4.64,10.363,10.363S67.505,317.492,61.781,317.492z"/>
	</g>
	<g>
		<path fill="#030C1C" d="M310.369,119.221c0,2.965-2.257,5.37-5.041,5.37h-60.74c-2.784,0-5.041-2.404-5.041-5.37V53.719
			c0-2.966,2.257-5.37,5.041-5.37h60.74c2.784,0,5.041,2.404,5.041,5.37V119.221z"/>
		<path fill="#061A3D" d="M303.718,119.725c0,2.687-2.044,4.866-4.567,4.866h-55.037c-2.521,0-4.566-2.179-4.566-4.866V60.374
			c0-2.687,2.045-4.866,4.566-4.866h55.037c2.523,0,4.567,2.179,4.567,4.866V119.725z"/>
		<path fill="#B5B5B5" d="M259.749,50.517V39.144c0-7.042,5.356-15.317,15.552-15.317c10.369,0,15.553,8.276,15.553,15.317v11.373
			h6.807V33.055c0-9.657-10.01-17.485-22.357-17.485c-12.35,0-22.36,7.829-22.36,17.485v17.462H259.749z"/>
		<g>
			<circle fill="#FFFFFF" cx="271.633" cy="79.799" r="8.055"/>
			<polygon fill="#FFFFFF" points="276.697,101.195 266.568,101.195 270.275,79.799 273.386,79.799 			"/>
		</g>
	</g>
	<g>
		<polygon fill="#BDE6F0" points="400.012,254.149 360.127,289.927 312.034,289.927 312.034,170.278 400.012,170.278 		"/>
		<polygon fill="#6EB7AC" points="367.165,254.149 360.127,289.927 400.012,254.149 		"/>
		<rect x="325.523" y="189.633" fill="#666666" width="62.757" height="7.625"/>
		<rect x="325.523" y="204.525" fill="#B3B3B3" width="62.757" height="4.526"/>
		<rect x="325.523" y="214.432" fill="#B3B3B3" width="62.757" height="4.527"/>
		<rect x="325.523" y="224.339" fill="#B3B3B3" width="62.757" height="4.526"/>
		<rect x="325.523" y="234.246" fill="#B3B3B3" width="62.757" height="4.526"/>
		<rect x="325.523" y="244.152" fill="#B3B3B3" width="62.757" height="4.527"/>
		<rect x="325.523" y="254.06" fill="#B3B3B3" width="31.378" height="4.526"/>
	</g>
	<g>
		<rect x="34.422" y="125.508" fill="#FEA621" width="16.581" height="68.314"/>
		<polygon fill="#D6A673" points="34.422,193.823 42.713,215.047 51.003,193.823 		"/>
		<polygon fill="#170709" points="44.958,209.299 40.468,209.299 42.713,215.047 		"/>
		<rect x="38.733" y="125.508" fill="#FFC723" width="7.959" height="68.314"/>
	</g>
	<g>
		<rect x="89.042" y="60.023" fill="#C95300" width="101.482" height="57.042"/>
		<polygon fill="#FF8000" points="139.783,80.365 89.042,117.066 190.524,117.066 		"/>
		<polygon fill="#FFB000" points="139.783,96.726 89.042,60.023 190.524,60.023 		"/>
	</g>
	<g>
		<path fill="#FCA678" d="M190.081,249.081c4.263-5.285,36.817-45.647,45.25-56.104c8.434-10.457,14.528,0.103,7.813,9.642
			c-6.717,9.538-38.251,54.327-38.251,54.327s2.132-0.229,12.302-13.182c5.911-7.53,16.285,3.135,12.485,8.677
			c-9.463,13.803-9.065,16.072-9.065,16.072s6.47-8.702,12.274-15.897c5.804-7.195,13.972,3.86,10.915,6.962
			c-10.113,12.997-12.602,18.588-12.602,18.588s6.141-6.923,11.854-14.007c5.713-7.083,13.76,5.717,6.143,15.161
			s-23.215,28.782-35.367,43.849c-12.151,15.066-30.407,16.302-30.407,16.302l-5.845,19.491L132.6,346.863l15.38-34.896
			c0,0-2.184-15.575,1.516-28.443c3.7-12.867,10.572-43.473,12.443-54.212c1.872-10.739,16.17-6.113,14.698,2.615
			c-1.473,8.729-2.945,16.819-3.369,19.964S185.819,254.364,190.081,249.081z"/>
		<g>
			<g>
				<path fill="#030C1C" d="M262.109,197.322c0,1.828-2.005,3.31-4.478,3.31h-0.84c-2.474,0-4.479-1.482-4.479-3.31V184.91
					c0-1.828,2.005-3.31,4.479-3.31h0.84c2.473,0,4.478,1.482,4.478,3.31V197.322z"/>
				<path fill="#030C1C" d="M262.109,219.995c0,1.828-2.005,3.31-4.478,3.31h-0.84c-2.474,0-4.479-1.482-4.479-3.31v-12.413
					c0-1.828,2.005-3.311,4.479-3.311h0.84c2.473,0,4.478,1.482,4.478,3.311V219.995z"/>
				<path fill="#061A3D" d="M259.031,319.169c0,2.474-1.883,4.479-4.204,4.479h-73.042c-2.322,0-4.204-2.005-4.204-4.479V168.585
					c0-2.474,1.882-4.479,4.204-4.479h73.042c2.321,0,4.204,2.005,4.204,4.479V319.169z"/>
				<rect x="180.24" y="175.722" fill="#FFFFFF" width="76.132" height="130.992"/>
				<polygon fill="#A9DFEC" points="256.372,306.714 180.24,306.714 180.24,175.722 				"/>
				<rect x="206.13" y="164.106" fill="#030C1C" width="24.351" height="5.738"/>
				<rect x="207.25" y="309.232" fill="#030C1C" width="18.753" height="10.356"/>
			</g>
			<path fill="#FF3900" d="M248.58,282.588c0,1.914-1.553,3.467-3.467,3.467h-49.112c-1.915,0-3.467-1.553-3.467-3.467v-12.711
				c0-1.915,1.552-3.467,3.467-3.467h49.112c1.914,0,3.467,1.552,3.467,3.467V282.588z"/>
		</g>
		<path fill="#FCA678" d="M255.504,349.279c-1.777-6.553-15.344-56.603-18.858-69.568c-3.515-12.965,8.611-11.701,12.392-0.665
			c3.779,11.036,21.528,62.858,21.528,62.858s1.067-1.861-3.451-17.698c-2.625-9.205,12.099-11.343,14.355-5.013
			c5.62,15.762,7.69,16.772,7.69,16.772s-3.248-10.347-5.666-19.269c-2.418-8.923,11.328-9.046,12.043-4.75
			c4.587,15.817,7.651,21.113,7.651,21.113s-2.001-9.035-4.382-17.818s12.707-7.785,15.881,3.927
			c3.175,11.71,9.674,35.688,14.738,54.371c5.064,18.682-4.65,34.186-4.65,34.186l11.234,25.988l-51.026,13.831l-3.282-27.267
			c0,0-13.892-7.374-22.137-17.924c-8.246-10.549-28.99-34.078-36.585-41.897c-7.596-7.818,4.543-16.68,10.745-10.363
			c6.201,6.316,11.887,12.258,14.185,14.446C250.206,366.729,257.279,355.831,255.504,349.279z"/>
		<polygon fill="#0D2B6B" points="346.345,451.764 338.868,415.041 278.283,433.531 277.724,451.764 		"/>
		<polygon fill="#0D2B6B" points="167.098,451.764 185.756,348.597 140.11,314.41 93.812,451.764 		"/>
	</g>
	<g>
		<path fill="#B5B5B5" d="M237.71,237.964c0,3.108-2.353,5.628-5.255,5.628H91.211c-2.902,0-5.255-2.52-5.255-5.628v-79.486
			c0-3.107,2.354-5.627,5.255-5.627h141.244c2.902,0,5.255,2.52,5.255,5.627V237.964z"/>
		<path fill="#FFFFFF" d="M234.044,234.676c0,3.108-2.354,5.627-5.256,5.627H87.545c-2.902,0-5.256-2.519-5.256-5.627V155.19
			c0-3.107,2.354-5.627,5.256-5.627h141.243c2.902,0,5.256,2.52,5.256,5.627V234.676z"/>
		<path fill="#061A3D" d="M234.044,164.984v-10.057c0-2.962-2.354-5.364-5.256-5.364H87.545c-2.902,0-5.256,2.402-5.256,5.364
			v10.057H234.044z"/>
		<rect x="94.582" y="172.36" fill="#6EB7AC" width="60.344" height="16.092"/>
		<rect x="159.731" y="192.81" fill="#6EB7AC" width="60.344" height="16.092"/>
		<rect x="94.582" y="192.81" fill="#7E9926" width="15.645" height="16.092"/>
		<rect x="116.247" y="192.81" fill="#FEA621" width="15.645" height="16.092"/>
		<rect x="136.375" y="192.81" fill="#C1111E" width="15.646" height="16.092"/>
		<rect x="165.654" y="172.36" fill="#6EB7AC" width="54.98" height="4.47"/>
		<rect x="165.654" y="180.406" fill="#6EB7AC" width="54.98" height="4.47"/>
		<rect x="94.582" y="216.166" fill="#6EB7AC" width="54.98" height="4.47"/>
		<rect x="94.582" y="224.211" fill="#6EB7AC" width="54.98" height="4.469"/>
		<rect x="159.731" y="216.166" fill="#6EB7AC" width="60.344" height="4.47"/>
		<rect x="159.731" y="224.211" fill="#6EB7AC" width="60.344" height="4.469"/>
		<circle fill="#FFFFFF" cx="197.311" cy="157.498" r="4.168"/>
		<circle fill="#FFFFFF" cx="208.844" cy="157.498" r="4.167"/>
		<circle fill="#FFFFFF" cx="220.377" cy="157.498" r="4.168"/>
		<path fill="#FFFFFF" d="M176.829,157.498c0,2.302-1.866,4.168-4.168,4.168H98.749c-2.301,0-4.167-1.866-4.167-4.168l0,0
			c0-2.302,1.866-4.167,4.167-4.167h73.912C174.963,153.33,176.829,155.196,176.829,157.498L176.829,157.498z"/>
	</g>
</g>
</svg>
