<?xml version="1.0" encoding="UTF-8" standalone="no"?>
<!-- Created with Inkscape (http://www.inkscape.org/) -->

<svg
   version="1.1"
   id="svg9"
   width="546.88989"
   height="509.14133"
   viewBox="0 0 546.8899 509.14134"
   sodipodi:docname="coffee714.svg"
   inkscape:version="1.2.2 (732a01da63, 2022-12-09)"
   xmlns:inkscape="http://www.inkscape.org/namespaces/inkscape"
   xmlns:sodipodi="http://sodipodi.sourceforge.net/DTD/sodipodi-0.dtd"
   xmlns="http://www.w3.org/2000/svg"
   xmlns:svg="http://www.w3.org/2000/svg">
  <defs
     id="defs13">
    <rect
       x="644.34662"
       y="688.47998"
       width="295.6933"
       height="229.49332"
       id="rect3726" />
    <clipPath
       clipPathUnits="userSpaceOnUse"
       id="clipPath69">
      <path
         d="m 334.5405,15740.398 c 0,3.993 3.2157,7.23 7.1825,7.23 h 221.6659 c 3.9668,0 7.1825,-3.237 7.1825,-7.23 v -172.383 c 0,-3.993 -3.2157,-7.23 -7.1825,-7.23 H 341.723 c -3.9668,0 -7.1825,3.237 -7.1825,7.23 z"
         id="path67" />
    </clipPath>
    <clipPath
       clipPathUnits="userSpaceOnUse"
       id="clipPath105">
      <path
         d="m 334.5405,15148.271 c 0,3.993 3.2157,7.23 7.1825,7.23 h 221.6659 c 3.9668,0 7.1825,-3.237 7.1825,-7.23 v -172.383 c 0,-3.993 -3.2157,-7.23 -7.1825,-7.23 H 341.723 c -3.9668,0 -7.1825,3.237 -7.1825,7.23 z"
         id="path103" />
    </clipPath>
    <clipPath
       clipPathUnits="userSpaceOnUse"
       id="clipPath117">
      <path
         d="m 783.1297,14746.853 c 0,3.993 3.2156,7.231 7.1825,7.231 h 221.6658 c 3.9669,0 7.1826,-3.238 7.1826,-7.231 v -172.382 c 0,-3.993 -3.2157,-7.23 -7.1826,-7.23 H 790.3122 c -3.9669,0 -7.1825,3.237 -7.1825,7.23 z"
         id="path115" />
    </clipPath>
    <clipPath
       clipPathUnits="userSpaceOnUse"
       id="clipPath129">
      <path
         d="m 783.1297,15541.689 c 0,3.993 3.2156,7.23 7.1825,7.23 h 221.6658 c 3.9669,0 7.1826,-3.237 7.1826,-7.23 v -172.383 c 0,-3.993 -3.2157,-7.23 -7.1826,-7.23 H 790.3122 c -3.9669,0 -7.1825,3.237 -7.1825,7.23 z"
         id="path127" />
    </clipPath>
    <clipPath
       clipPathUnits="userSpaceOnUse"
       id="clipPath141">
      <path
         d="m 783.1297,15342.98 c 0,3.993 3.2156,7.23 7.1825,7.23 h 221.6658 c 3.9669,0 7.1826,-3.237 7.1826,-7.23 v -172.382 c 0,-3.994 -3.2157,-7.231 -7.1826,-7.231 H 790.3122 c -3.9669,0 -7.1825,3.237 -7.1825,7.231 z"
         id="path139" />
    </clipPath>
    <clipPath
       clipPathUnits="userSpaceOnUse"
       id="clipPath153">
      <path
         d="m 783.1297,15148.271 c 0,3.993 3.2156,7.23 7.1825,7.23 h 221.6658 c 3.9669,0 7.1826,-3.237 7.1826,-7.23 v -172.383 c 0,-3.993 -3.2157,-7.23 -7.1826,-7.23 H 790.3122 c -3.9669,0 -7.1825,3.237 -7.1825,7.23 z"
         id="path151" />
    </clipPath>
    <clipPath
       clipPathUnits="userSpaceOnUse"
       id="clipPath165">
      <path
         d="m 783.1297,14945.562 c 0,3.993 3.2156,7.231 7.1825,7.231 h 221.6658 c 3.9669,0 7.1826,-3.238 7.1826,-7.231 v -172.382 c 0,-3.993 -3.2157,-7.23 -7.1826,-7.23 H 790.3122 c -3.9669,0 -7.1825,3.237 -7.1825,7.23 z"
         id="path163" />
    </clipPath>
    <clipPath
       clipPathUnits="userSpaceOnUse"
       id="clipPath177">
      <path
         d="m 334.5405,14746.853 c 0,3.993 3.2157,7.231 7.1825,7.231 h 221.6659 c 3.9668,0 7.1825,-3.238 7.1825,-7.231 v -172.382 c 0,-3.993 -3.2157,-7.23 -7.1825,-7.23 H 341.723 c -3.9668,0 -7.1825,3.237 -7.1825,7.23 z"
         id="path175" />
    </clipPath>
    <clipPath
       clipPathUnits="userSpaceOnUse"
       id="clipPath189">
      <path
         d="m 334.5405,14945.562 c 0,3.993 3.2157,7.231 7.1825,7.231 h 221.6659 c 3.9668,0 7.1825,-3.238 7.1825,-7.231 v -172.382 c 0,-3.993 -3.2157,-7.23 -7.1825,-7.23 H 341.723 c -3.9668,0 -7.1825,3.237 -7.1825,7.23 z"
         id="path187" />
    </clipPath>
    <clipPath
       clipPathUnits="userSpaceOnUse"
       id="clipPath5600">
      <g
         id="g5604">
        <path
           d="m 89.53632,838.015 c 0,3.993 3.2157,7.23 7.1825,7.23 h 221.6659 c 3.9668,0 7.1825,-3.237 7.1825,-7.23 V 665.633 c 0,-3.994 -3.2157,-7.231 -7.1825,-7.231 H 96.71882 c -3.9668,0 -7.1825,3.237 -7.1825,7.231 z"
           id="path5602" />
      </g>
    </clipPath>
  </defs>
  <sodipodi:namedview
     id="namedview11"
     pagecolor="#ffffff"
     bordercolor="#111111"
     borderopacity="1"
     inkscape:showpageshadow="0"
     inkscape:pageopacity="0"
     inkscape:pagecheckerboard="1"
     inkscape:deskcolor="#d1d1d1"
     showgrid="false"
     inkscape:zoom="0.71598212"
     inkscape:cx="276.54322"
     inkscape:cy="569.84663"
     inkscape:window-width="1920"
     inkscape:window-height="1017"
     inkscape:window-x="-8"
     inkscape:window-y="-8"
     inkscape:window-maximized="1"
     inkscape:current-layer="g17">
    <inkscape:page
       x="0"
       y="0"
       id="page15"
       width="546.88989"
       height="509.14133" />
  </sodipodi:namedview>
  <g
     id="g17"
     inkscape:groupmode="layer"
     inkscape:label="Page 1"
     transform="matrix(1.3333333,0,0,-1.3333333,0,1755.54)"
     style="display:inline">
    <path
       d="M -7.9830307e-5,1316.895 H 414.22782 V 987.29348 H -7.9830307e-5 Z"
       style="fill:#f0f0fa;fill-opacity:1;fill-rule:evenodd;stroke:none;stroke-width:0.335708"
       id="path21" />
    <path
       d="m 37.24362,1254.075 c 0,18.786 15.2281,34.014 34.0134,34.014 h 274.5363 c 18.7852,0 34.0133,-15.228 34.0133,-34.014 V 604.978 c 0,-18.786 -15.2281,-34.014 -34.0133,-34.014 H 71.25702 c -18.7853,0 -34.0134,15.228 -34.0134,34.014 z"
       style="fill:#cccccc;fill-opacity:1;fill-rule:nonzero;stroke:#cccccc;stroke-width:1;stroke-linecap:butt;stroke-linejoin:miter;stroke-miterlimit:3.8637;stroke-dasharray:none;stroke-opacity:1"
       id="path25" />
    <path
       d="m 45.22252,1260.83 c 0,13.583 11.0109,24.593 24.5938,24.593 h 279.077 c 13.5829,0 24.5938,-11.01 24.5938,-24.593 V 603.55 c 0,-13.583 -11.0109,-24.594 -24.5938,-24.594 h -279.077 c -13.5829,0 -24.5938,11.011 -24.5938,24.594 z"
       style="fill:#ffffff;fill-opacity:1;fill-rule:nonzero;stroke:none"
       id="path31" />
    <path
       d="m 90.69992,843.385 c 0,0.954 0.7736,1.727 1.7278,1.727 h 229.1999 c 0.9542,0 1.7278,-0.773 1.7278,-1.727 v -180.22 c 0,-0.954 -0.7736,-1.728 -1.7278,-1.728 H 92.42772 c -0.9542,0 -1.7278,0.774 -1.7278,1.728 z"
       style="fill:none;stroke:#231f20;stroke-width:0.2879;stroke-linecap:butt;stroke-linejoin:miter;stroke-miterlimit:3.8637;stroke-dasharray:none;stroke-opacity:1"
       id="path95"
       clip-path="url(#clipPath5600)" />
    <g
       id="g99"
       transform="translate(-245.00418,-14504.965)">
      <g
         id="g101"
         clip-path="url(#clipPath105)">
        <path
           d="m 334.3377,15153.694 c 0,0.954 0.7735,1.727 1.7278,1.727 h 233.261 c 0.9543,0 1.7278,-0.773 1.7278,-1.727 v -182.637 c 0,-0.954 -0.7735,-1.728 -1.7278,-1.728 h -233.261 c -0.9543,0 -1.7278,0.774 -1.7278,1.728 z"
           style="fill:none;stroke:#ff00ff;stroke-width:0.2879;stroke-linecap:butt;stroke-linejoin:miter;stroke-miterlimit:3.8637;stroke-dasharray:none;stroke-opacity:1"
           id="path107" />
      </g>
    </g>
    <g
       id="g65"
       clip-path="url(#clipPath69)"
       style="fill:#ffeeaa"
       transform="translate(-245.00418,-14504.965)">
      <path
         d="m 338.7499,15745.258 c 0,0.954 0.7736,1.728 1.7278,1.728 h 229.1999 c 0.9542,0 1.7278,-0.774 1.7278,-1.728 v -180.219 c 0,-0.955 -0.7736,-1.728 -1.7278,-1.728 H 340.4777 c -0.9542,0 -1.7278,0.773 -1.7278,1.728 z"
         style="fill:#ffeeaa;stroke:#231f20;stroke-width:0.2879;stroke-linecap:butt;stroke-linejoin:miter;stroke-miterlimit:3.8637;stroke-dasharray:none;stroke-opacity:1"
         id="path71" />
    </g>
    <text
       xml:space="preserve"
       transform="scale(1,-1)"
       style="font-variant:normal;font-weight:normal;font-size:72px;font-family:'Arial Rounded MT Bold';-inkscape-font-specification:ArialRoundedMTBold;writing-mode:lr-tb;fill:#000000;fill-opacity:1;fill-rule:nonzero;stroke:none"
       id="text197"
       x="103.73143"
       y="-1126.255"><tspan
         x="103.73143"
         sodipodi:role="line"
         id="tspan195"
         y="-1126.255">711.</tspan></text>
    <g
       id="g77"
       clip-path="none"
       style="fill:#ffeeaa"
       transform="translate(-245.00418,-14504.965)">
      <path
         d="m 332.5042,15545.135 c 0,0.954 0.7735,1.728 1.7278,1.728 h 229.1998 c 0.9543,0 1.7278,-0.774 1.7278,-1.728 v -180.22 c 0,-0.954 -0.7735,-1.728 -1.7278,-1.728 H 334.232 c -0.9543,0 -1.7278,0.774 -1.7278,1.728 z"
         style="fill:#ffeeaa;stroke:#231f20;stroke-width:0.2879;stroke-linecap:butt;stroke-linejoin:miter;stroke-miterlimit:3.8637;stroke-dasharray:none;stroke-opacity:1"
         id="path83" />
    </g>
    <text
       xml:space="preserve"
       transform="scale(1,-1)"
       style="font-variant:normal;font-weight:normal;font-size:72px;font-family:'Arial Rounded MT Bold';-inkscape-font-specification:ArialRoundedMTBold;writing-mode:lr-tb;fill:#231f20;fill-opacity:1;fill-rule:nonzero;stroke:none"
       id="text201"
       x="101.90097"
       y="-935.95001"><tspan
         id="tspan199"
         sodipodi:role="line"
         x="101.90097"
         y="-935.95001">799.</tspan></text>
    <path
       d="m 89.53632,838.015 c 0,3.993 3.2157,7.23 7.1825,7.23 h 221.6659 c 3.9668,0 7.1825,-3.237 7.1825,-7.23 V 665.633 c 0,-3.994 -3.2157,-7.231 -7.1825,-7.231 H 96.71882 c -3.9668,0 -7.1825,3.237 -7.1825,7.231 z"
       style="fill:#00ff00;stroke:#cccccc;stroke-width:0.7999;stroke-linecap:butt;stroke-linejoin:miter;stroke-miterlimit:3.8636;stroke-dasharray:none;stroke-opacity:1"
       id="path97" />
    <text
       xml:space="preserve"
       transform="scale(1,-1)"
       style="font-variant:normal;font-weight:normal;font-size:72px;font-family:'Arial Rounded MT Bold';-inkscape-font-specification:ArialRoundedMTBold;writing-mode:lr-tb;display:inline;fill:#280b0b;fill-opacity:1;fill-rule:nonzero;stroke:none"
       id="text205"
       x="114.64391"
       y="-765.94775"><tspan
         x="114.64391"
         y="-765.94775"
         sodipodi:role="line"
         id="tspan203">113.</tspan></text>
  </g>
</svg>
